<?xml version="1.0" standalone="no"?>
<!DOCTYPE svg PUBLIC "-//W3C//DTD SVG 1.1//EN" "http://www.w3.org/Graphics/SVG/1.1/DTD/svg11.dtd" >
<svg xmlns="http://www.w3.org/2000/svg">
<metadata>Generated by IcoMoon</metadata>
<defs>
<font id="icomoon" horiz-adv-x="1024">
<font-face units-per-em="1024" ascent="960" descent="-64" />
<missing-glyph horiz-adv-x="1024" />
<glyph unicode="&#x20;" d="" horiz-adv-x="512" />
<glyph unicode="&#xe600;" d="M512 896c-247.36 0-448-200.576-448-448 0-247.36 200.64-448 448-448 247.488 0 448 200.64 448 448 0 247.424-200.512 448-448 448zM512 63.232c-212.48 0-384.768 172.224-384.768 384.768s172.288 384.768 384.768 384.768 384.64-172.288 384.64-384.768-172.16-384.768-384.64-384.768zM384 640l312-192-312-192v384z" />
<glyph unicode="&#xe601;" d="M862.848 766.656l-36.288 36.16c-19.264 19.456-44.992 29.312-70.272 29.184-25.344 0-51.072-9.728-70.4-29.12l-459.008-458.944c-13.696-13.76-64.832-206.784-68.16-211.328l-12.672-50.752 50.688 12.736c4.416 3.328 197.44 54.592 211.2 68.224l459.008 459.072c19.392 19.392 29.12 44.992 29.056 70.336 0.064 25.28-13.824 55.168-33.152 74.432zM363.456 207.232c0.832-4.032-150.272-58.048-150.656-57.664 0.384-0.384 54.528 150.656 58.56 150.016l349.056 349.056 92.224-92.16-349.184-349.248zM822.528 666.304l-65.408-65.408-92.096 92.16 65.344 65.408c7.232 7.168 16.448 10.688 25.984 10.752 9.344-0.128 18.56-3.584 25.856-10.752l36.16-36.224c7.168-7.296 14.848-20.544 14.784-30.016 0.128-9.536-3.456-18.752-10.624-25.92z" />
<glyph unicode="&#xe602;" d="M960 733.184c0 64.96-52.736 98.816-117.632 98.816h-636.288c-64.96 0-117.76-33.856-117.76-98.816 0-28.544 10.624-46.080 29.248-67.52 1.152-1.6 2.88 1.28 4.288-0.192l262.144-256.192v-273.856c0-18.24 13.76-33.088 32-33.088s32 14.784 32 33.024v287.552c0 8.832-3.52 17.216-9.664 23.36l-268.416 268.352c-0.512 0.576-0.64 1.344-1.216 1.856-9.216 9.6-14.336 4.416-14.336 17.728 0.064 28.544 23.168 33.792 51.712 33.792h636.288c28.352 0 51.52-5.248 51.52-33.728 0-13.248-4.992-16.896-14.144-26.496-0.256-0.256-0.32 3.904-0.512 3.648l-285.824-275.776c-6.144-6.208-17.408-12.416-17.408-21.12v-349.504c0-18.304 13.76-33.024 32-33.024s32 14.72 32 33.024v335.808l278.528 269.696c0.384 0.384 4.928-8.512 5.376-8.064 20.352 21.76 36.096 40.768 36.096 70.72z" />
<glyph unicode="&#xe603;" d="M813.952 756.224c0.128 25.28-13.824 55.104-33.152 74.432l-36.224 36.16c-19.328 19.456-44.992 29.312-70.272 29.184-25.344 0-51.136-9.728-70.4-29.12l-459.072-458.944c-13.632-13.76-64.832-206.784-68.16-211.328l-12.672-50.752 50.688 12.736c4.416 3.328 197.504 54.592 211.2 68.224l459.072 459.072c19.2 19.392 29.056 44.992 28.992 70.336zM281.408 271.232c0.768-4.032-150.272-58.048-150.656-57.664 0.448-0.384 54.592 150.592 58.56 150.016l349.12 349.056 92.096-92.16-349.12-349.248zM740.416 730.304l-65.344-65.408-92.096 92.16 65.344 65.408c7.296 7.168 16.448 10.688 26.048 10.752 9.344-0.128 18.496-3.584 25.792-10.752l36.16-36.224c7.168-7.296 14.848-20.544 14.848-30.016 0-9.536-3.456-18.752-10.752-25.92zM960 224c0-17.664-14.336-32-32-32h-160v-160c0-17.664-12.736-32-30.4-32-17.728 0-33.6 14.336-33.6 32v160h-156.8c-16.704 0-30.016 12.928-31.424 29.248 1.408 29.952 14.72 34.752 31.424 34.752h156.8v160c0 17.664 15.872 32 33.6 32 17.664 0 30.4-14.336 30.4-32v-160h160c17.664 0 32-14.336 32-32zM515.2 224c0-1.024 0.448-1.792 0.576-2.752-0.128-1.728-0.576-2.688-0.576-4.608v7.36z" />
<glyph unicode="&#xe604;" d="M780.8 830.656l-36.224 36.16c-19.328 19.456-44.992 29.312-70.272 29.184-25.344 0-51.136-9.728-70.4-29.12l-459.072-458.944c-13.632-13.76-64.832-206.784-68.16-211.328l-12.672-50.752 50.688 12.736c4.416 3.328 197.504 54.592 211.2 68.224l459.072 459.072c19.264 19.328 29.056 44.928 28.992 70.336 0.128 25.28-13.824 55.168-33.152 74.432zM281.408 271.232c0.768-4.032-150.272-58.048-150.656-57.664 0.448-0.384 54.592 150.592 58.56 150.016l349.12 349.056 92.096-92.16-349.12-349.248zM740.416 730.304l-65.344-65.408-92.096 92.16 65.344 65.408c7.296 7.168 16.448 10.688 26.048 10.752 9.344-0.128 18.496-3.584 25.792-10.752l36.16-36.224c7.168-7.296 14.848-20.544 14.848-30.016 0-9.536-3.456-18.752-10.752-25.92zM547.2 192c-17.664 0-32 14.336-32 32v-7.36c0 35.008 14.272 39.36 32 39.36h380.8c17.664 0 32-14.336 32-32v0c0-17.664-14.336-32-32-32h-380.8z" />
<glyph unicode="&#xe605;" d="M964.8 669.184c-121.92 211.2-392.896 283.776-604.096 161.792-98.816-57.024-170.048-148.096-202.304-256.96h-121.472c-20.416 0-36.928-16.576-36.928-36.928 0-20.416 16.512-36.992 36.928-36.992h349.632c20.416 0 36.928 16.512 36.928 36.992 0 20.416-16.512 36.928-36.928 36.928h-140.416c29.248 78.016 82.56 143.68 155.648 185.856 172.032 99.328 392.704 40.256 492.032-131.776 99.392-172.032 40.128-392.768-131.904-492.096-172.032-99.264-392.64-40.128-491.968 131.904l-0.192 0.384 109.184-29.376c22.016-5.824 44.416 7.168 50.304 28.992 5.76 22.016-7.168 44.48-29.056 50.368l-204.928 54.848c-10.624 2.752-21.76 1.344-31.168-4.032-9.344-5.44-16.32-14.464-19.136-24.96l-54.848-204.864c-5.888-21.952 7.040-44.352 28.992-50.368 21.952-5.76 44.416 7.232 50.304 29.12l29.248 109.248 0.192-0.384c121.92-211.2 392.896-283.84 604.096-161.856s283.776 392.96 161.856 604.16z" />
<glyph unicode="&#xe606;" d="M120.256 134.848c-1.344 1.344-1.728 2.368-2.944 3.776-0.704 0.576-1.6 0.832-2.304 1.472l5.248-5.248zM859.968 841.344c12.48 12.48 12.48 32.768 0 45.248s-32.768 12.48-45.248 0l-78.912-79.104c-68.8 57.92-152.768 88.512-237.568 88.512-94.912 0-189.952-36.224-262.4-108.736-137.472-137.344-142.976-354.752-19.776-500.608l-101.056-101.248c-11.776-11.84-17.792-24.64 2.304-46.72 12.608-10.56 31.168-10.304 42.944 1.472l98.816 99.072 239.104-239.232 262.4 262.528c137.216 137.152 142.912 353.984 20.416 499.776l78.976 79.040zM191.040 524.928c0 81.984 32 159.104 89.984 217.088 58.048 57.984 135.104 89.984 217.216 89.984 71.168 0 137.92-25.344 192.384-69.696l-88.896-89.088c-29.888 19.264-65.344 30.784-103.552 30.784-105.856 0-192-86.144-192-192 0-37.504 10.88-73.28 30.848-104.064l-75.776-76.032c-44.672 54.592-70.208 121.536-70.208 193.024zM626.176 512c0-35.392-14.4-67.392-37.504-90.496-23.168-23.104-55.168-37.504-90.496-37.504-26.88 0-51.584 8.32-72.192 22.464l177.664 178.048c14.144-20.672 22.528-45.568 22.528-72.512zM370.176 512c0 70.72 57.344 128 128 128 20.48 0 39.552-5.248 56.704-13.76l-170.816-171.2c-8.576 17.216-13.888 36.416-13.888 56.96zM805.312 524.928c0-82.048-31.872-159.168-89.984-217.152l-217.152-217.28-193.856 193.984 76.48 76.672c33.6-26.24 74.24-41.152 117.376-41.152 51.2 0 99.52 19.968 135.808 56.256s56.192 84.48 56.192 135.744c0 44.544-15.872 85.12-41.408 117.696l87.104 87.36c44.224-54.464 69.44-121.088 69.44-192.128z" />
<glyph unicode="&#xe607;" d="M499.136 832c81.984 0 159.104-32 217.088-90.048 58.048-57.984 89.984-135.040 89.984-217.088s-31.936-159.168-89.984-217.152l-217.152-217.28-217.152 217.28c-57.92 58.048-89.92 135.168-89.92 217.216 0 81.984 32 159.104 89.984 217.088 58.048 57.984 135.168 89.984 217.152 89.984zM499.136 320c51.2 0 99.456 19.968 135.744 56.256 36.224 36.224 56.256 84.48 56.256 135.744 0 105.856-86.144 192-192 192s-192-86.144-192-192c0-51.328 19.968-99.52 56.256-135.808 36.352-36.224 84.544-56.192 135.744-56.192zM499.136 896c-94.976 0-189.952-36.224-262.4-108.736-145.024-144.896-145.024-379.84 0-524.736l262.4-262.528 262.4 262.528c145.024 144.96 145.024 379.904 0 524.736-72.448 72.512-167.424 108.736-262.4 108.736v0zM499.136 384c-35.328 0-67.328 14.4-90.496 37.504s-37.504 55.104-37.504 90.496c0 70.72 57.28 128 128 128s128-57.28 128-128c0-35.392-14.4-67.392-37.504-90.496-23.168-23.104-55.168-37.504-90.496-37.504v0z" />
<glyph unicode="&#xe608;" d="M406.784 281.792c-22.656-0.064-41.088 19.072-41.088 42.56v252.608c0 23.68 18.432 42.688 41.152 42.688 22.72 0.128 41.152-19.136 41.152-42.624v-252.544c0-23.616-18.432-42.752-41.216-42.688zM658.24 324.416v252.608c0 23.488-18.432 42.752-41.152 42.624-22.656 0-41.088-19.008-41.088-42.688v-252.544c0-23.488 18.368-42.624 41.088-42.56 22.72-0.128 41.152 19.008 41.152 42.56zM512 0c-247.36 0-448 200.576-448 448 0 247.36 200.64 448 448 448 247.424 0 448-200.64 448-448 0-247.424-200.576-448-448-448zM512 64.064c212.096 0 384 171.968 384 384s-171.904 384-384 384-384-171.968-384-384 171.904-384 384-384z" />
<glyph unicode="&#xe609;" d="M448.064 832h64v-64h64v-64h64v-64h-64v-64h-64v-64h-64v128h-256v64h256v128zM704.064 832v-704h192v704h-192zM640.064 448v-320h-192v320h192zM384.064 320v-192h-192v192h192z" />
<glyph unicode="&#xe60a;" d="M640.064 832h-64v-64h-64v-64h-64v-64h64v-64h64v-64h64v128h256v64h-256v128zM384.064 832v-704h-192v704h192zM448.064 448v-320h192v320h-192zM704.064 320v-192h192v192h-192z" />
<glyph unicode="&#xe60b;" d="M896 832v-704h-192v704h192zM448 448v-320h192v320h-192zM192 320v-192h192v192h-192z" />
<glyph unicode="&#xe60c;" d="M896 576v-64h-64v-64h-64v-64h-64v64h-64v64h-64v64h128v256h64v-256h128zM896 320h-704v-192h704v192zM512 384h-320v192h320v-192zM384 640h-192v192h192v-192z" />
<glyph unicode="&#xe60d;" d="M896 384v64h-64v64h-64v64h-64v-64h-64v-64h-64v-64h128v-256h64v256h128zM896 640h-704v192h704v-192zM512 576h-320v-192h320v192zM384 320h-192v-192h192v192z" />
<glyph unicode="&#xe60e;" d="M896 128h-704v192h704v-192zM512 576h-320v-192h320v192zM384 832h-192v-192h192v192z" />
<glyph unicode="&#xe60f;" d="M958.848 477.824c-1.728 19.52-17.344 37.632-36.352 42.24l-89.728 21.632c-6.016 1.344-14.272 8.896-16.64 15.744l-12.096 29.056c-2.624 5.568-2.112 16.64 1.152 21.952l48.128 78.656c10.368 16.96 8.256 40.96-5.632 56.384l-40.896 40.768c-14.272 12.608-39.232 14.912-55.488 4.928l-78.72-48c-4.992-3.072-15.488-4.16-22.848-0.704l-29.248 12.032c-5.888 1.92-13.248 10.112-14.72 16.192l-21.632 89.728c-4.608 19.008-22.784 34.624-42.24 36.352 0 0-12.096 1.216-29.888 1.216-17.984 0-29.888-1.216-30.016-1.216-19.392-1.728-37.632-17.344-42.112-36.416l-21.632-89.536c-1.408-6.144-8.896-14.4-15.744-16.768l-29.12-12.096c-5.12-2.56-17.088-1.92-21.888 1.152l-78.656 48c-16.32 9.984-40.832 8.192-56.32-5.568l-40.768-40.768c-13.12-14.784-15.232-38.72-4.992-55.616l48.128-78.72c3.328-5.248 3.84-16.384 0.704-22.848l-12.096-29.184c-1.984-5.888-10.24-13.248-16.32-14.656l-89.664-21.632c-19.008-4.544-34.624-22.656-36.416-42.24 0.128 0-1.088-11.968-1.088-29.888s1.216-29.888 1.216-29.888c1.664-19.52 17.408-37.632 36.416-42.24l89.536-21.632c6.080-1.344 14.336-8.896 16.704-15.616l12.032-29.12c2.752-5.632 2.176-16.64-1.088-22.016l-48.128-78.656c-10.24-16.896-8.128-40.896 5.76-56.384l40.832-40.64c14.208-12.608 39.168-14.848 55.552-4.992l78.656 48.128c4.864 3.008 15.488 4.096 22.848 0.64l29.056-12.032c5.888-1.984 13.376-10.24 14.784-16.256l21.632-89.728c4.48-19.136 22.656-34.752 42.112-36.48 0.192 0.064 12.096-1.088 30.080-1.088 17.856 0 29.888 1.152 29.888 1.152 19.52 1.728 37.632 17.344 42.24 36.48l21.632 89.728c1.344 6.016 8.896 14.272 15.744 16.512l28.992 12.096c5.12 2.496 17.024 1.856 22.016-1.152l78.656-48.128c6.976-4.096 15.232-6.528 24-6.528 12.032 0 23.36 4.096 32.384 12.096l40.768 40.768c13.12 14.72 15.232 38.656 4.992 55.488l-48.128 78.72c-3.392 5.376-3.904 16.384-0.768 22.848l12.096 28.992c1.984 6.016 10.112 13.376 16.256 14.72l89.728 21.632c19.008 4.608 34.624 22.72 36.352 42.176 0 0.448 1.152 12.48 1.152 30.4 0 17.792-1.152 29.824-1.152 29.824zM512 254.848c-106.496 0-193.216 86.72-193.216 193.152s86.656 193.216 193.216 193.216c106.368 0 193.088-86.72 193.088-193.216 0-106.368-86.72-193.152-193.088-193.152z" />
<glyph unicode="&#xe610;" d="M656.064 512.704c0-17.664-14.4-32-32-32h-96v-96c0-17.6-14.336-32-32-32s-32 14.4-32 32v96h-96c-17.664 0-32 14.336-32 32s14.336 32 32 32h96v96c0 17.664 14.336 32 32 32s32-14.336 32-32v-96h96c17.6 0 32-14.336 32-32zM945.344 9.152c-17.472-14.464-43.84-11.456-58.752 6.656l-182.656 213.248c-58.304-42.816-129.984-68.352-207.808-68.352-194.368 0-352 157.632-352 352s157.632 352 352 352 352-157.632 352-352c0-86.848-31.616-166.272-83.84-227.712l185.664-216.768c14.976-18.176 12.992-44.672-4.608-59.072zM496.064 224.704c158.784 0 288 129.216 288 288s-129.216 288-288 288-288-129.216-288-288 129.216-288 288-288z" />
<glyph unicode="&#xe611;" d="M656.064 512.704c0-17.664-14.4-32-32-32h-256c-17.664 0-32 14.336-32 32v0c0 17.664 14.336 32 32 32h256c17.6 0 32-14.336 32-32v0zM945.344 9.152c-17.472-14.464-43.84-11.456-58.752 6.656l-182.656 213.248c-58.304-42.816-129.984-68.352-207.808-68.352-194.368 0-352 157.632-352 352s157.632 352 352 352 352-157.632 352-352c0-86.848-31.616-166.272-83.84-227.712l185.664-216.768c14.976-18.176 12.992-44.672-4.608-59.072zM496.064 224.704c158.784 0 288 129.216 288 288s-129.216 288-288 288-288-129.216-288-288 129.216-288 288-288z" />
<glyph unicode="&#xe612;" d="M671.616 454.528c0-14.144-11.392-25.6-25.472-25.6h-102.528v-102.4c0-14.144-11.392-25.6-25.6-25.6-14.144 0-25.472 11.52-25.472 25.6v102.4h-102.528c-14.144 0-25.472 11.52-25.472 25.6s11.392 25.6 25.472 25.6h102.528v102.4c0 14.144 11.392 25.6 25.472 25.6 14.272 0 25.6-11.52 25.6-25.6v-102.4h102.528c14.080 0 25.472-11.52 25.472-25.6zM885.952 65.6l-162.24 187.648c50.816 51.968 82.368 122.816 82.368 201.28 0 159.040-128.96 288-288 288s-288-128.96-288-288 128.96-288 288-288c57.664 0 111.168 17.344 156.16 46.592h0.064c0.128-0.192 0-0.576 0.192-0.768l163.072-188.544c6.336-7.296 15.232-11.072 24.192-11.072 7.424 0 14.848 2.56 20.928 7.808 13.376 11.52 14.784 31.68 3.264 45.056zM518.080 230.528c-123.52 0-224 100.48-224 224s100.48 224 224 224 224-100.48 224-224-100.544-224-224-224zM960 320v32c0 17.664-14.336 32-32 32s-32-14.336-32-32v-32c0-17.664 14.336-32 32-32s32 14.336 32 32zM960 556.736v68.288c0 17.664-14.336 32-32 32s-32-14.336-32-32v-68.224c0-17.664 14.336-32 32-32s32 14.272 32 31.936zM960 829.696v32c0 17.664-14.336 32-32 32h-32c-17.664 0-32-14.336-32-32s14.336-32 32-32c0-17.664 14.336-32 32-32s32 14.336 32 32zM718.592 861.696c0 17.664-14.336 32-32 32h-69.824c-17.664 0-32-14.336-32-32s14.336-32 32-32h69.824c17.664 0 32 14.336 32 32zM439.296 861.696c0 17.664-14.336 32-32 32h-69.824c-17.664 0-32-14.336-32-32s14.336-32 32-32h69.824c17.728 0 32 14.336 32 32zM128 829.696c17.664 0 32 14.336 32 32s-14.336 32-32 32h-32c-17.664 0-32-14.336-32-32v-32c0-17.664 14.336-32 32-32s32 14.336 32 32zM128 272.832v69.632c0 17.664-14.336 32-32 32s-32-14.336-32-32v-69.632c0-17.664 14.336-32 32-32s32 14.272 32 32zM128 551.232v69.632c0 17.664-14.336 32-32 32s-32-14.272-32-32v-69.632c0-17.664 14.336-32 32-32s32 14.336 32 32zM160 32c0 17.664-14.336 32-32 32 0 17.664-14.336 32-32 32s-32-14.336-32-32v-32c0-17.664 14.336-32 32-32h32c17.664 0 32 14.336 32 32zM362.304 32c0 17.664-14.336 32-32 32h-50.56c-17.664 0-32-14.336-32-32s14.336-32 32-32h50.56c17.728 0 32 14.336 32 32zM545.984 32c0 17.664-14.336 32-32 32h-32c-17.664 0-32-14.336-32-32s14.336-32 32-32h32c17.728 0 32 14.336 32 32z" />
<glyph unicode="&#xe613;" d="M801.856 225.984l-221.952 222.016 222.016 222.016c18.816 18.816 18.88 49.152 0.064 67.968-18.752 18.752-49.216 18.752-67.904 0l-222.080-222.016-222.080 222.016c-18.688 18.752-49.088 18.752-67.904 0-18.688-18.752-18.688-49.216 0.128-68.032l221.952-221.952-222.016-221.952c-18.816-18.752-18.816-49.152-0.064-67.968 9.408-9.472 21.824-14.080 33.984-14.080s24.576 4.608 33.92 14.016l222.080 222.016 222.080-222.016c9.408-9.344 21.696-14.016 33.92-14.016 12.288 0 24.576 4.608 33.92 14.016 18.752 18.88 18.816 49.216-0.064 67.968z" />
<glyph unicode="&#xe614;" d="M893.44 640v-573.056c0-35.328-22.336-64-57.6-64h-579.84c-35.328 0-64 28.672-64 64v573.056h-64c0 35.392 28.672 64 64 64h193.536v64c0 35.392 25.408 64 60.8 64h195.2c35.392 0 60.8-28.608 60.8-64v-64h191.104c35.328 0 64-28.608 64-64v0h-64zM641.472 768h-195.2v-64h195.2v64zM833.472 640h-579.2v-577.088h579.2v577.088zM445.504 256h-60.032v256h60.032v-256zM702.336 256h-60.8v256h60.8v-256z" />
<glyph unicode="&#xe615;" d="M832 480c0-17.664-14.336-32-32-32h-576c-17.664 0-32 14.336-32 32v0c0 17.664 14.336 32 32 32h576c17.664 0 32-14.336 32-32v0z" />
<glyph unicode="&#xe616;" d="M479.168 767.104v-558.976l-153.6 153.664c-12.8 12.8-33.6 12.8-46.528 0-12.8-12.8-12.736-33.6 0-46.528l209.792-209.664c0.64-0.64 1.408-0.832 2.048-1.344 2.624-2.24 5.376-4.288 8.64-5.696 3.584-1.344 7.36-2.112 11.2-2.24 0.384 0 0.832-0.32 1.28-0.32 0.768 0 1.344 0.448 2.048 0.448 3.584 0.192 7.104 0.832 10.496 2.048 3.84 1.6 7.296 3.968 10.176 6.848 0 0 0.32 0.192 0.512 0.32l209.728 209.664c6.4 6.4 9.6 14.784 9.6 23.168 0 8.448-3.264 16.896-9.6 23.232-12.864 12.8-33.6 12.8-46.528 0l-153.6-153.664 0.32 558.976c0.064 18.24-14.592 32.96-32.832 32.96-18.112 0-33.152-14.72-33.152-32.896z" />
<glyph unicode="&#xe617;" d="M544.896 128.896v558.976l153.6-153.664c12.8-12.8 33.6-12.8 46.464 0s12.8 33.6 0 46.464l-209.728 209.728c-0.64 0.64-1.408 0.832-2.048 1.344-2.624 2.24-5.376 4.352-8.64 5.696-3.584 1.408-7.36 2.112-11.2 2.24-0.448 0-0.832 0.32-1.344 0.32-0.768 0-1.344-0.448-2.048-0.448-3.584-0.192-7.104-0.768-10.496-2.048-3.84-1.6-7.296-3.968-10.176-6.848 0 0-0.32-0.192-0.512-0.32l-209.728-209.728c-6.4-6.4-9.6-14.784-9.6-23.168 0-8.448 3.264-16.832 9.6-23.232 12.864-12.8 33.6-12.8 46.464 0l153.664 153.664-0.32-558.976c0-18.112 14.656-32.896 32.832-32.896s33.216 14.72 33.216 32.896z" />
<glyph unicode="&#xe618;" d="M514.24 706.304c141.376 0 256-114.624 256-256s-114.624-256-256-256-256 114.624-256 256c0 141.376 114.624 256 256 256zM512 896c-247.36 0-448-200.576-448-448 0-247.36 200.64-448 448-448 247.424 0 448 200.64 448 448 0 247.424-200.576 448-448 448zM511.936 63.232c-212.416 0-384.704 172.288-384.704 384.768s172.288 384.768 384.704 384.768c212.48 0 384.704-172.224 384.704-384.768s-172.224-384.768-384.704-384.768z" />
</font>
</defs>
</svg>
